<svg xmlns="http://www.w3.org/2000/svg" xmlns:xlink="http://www.w3.org/1999/xlink" id="Camada_1" x="0px" y="0px" viewBox="0 0 171.2 46.6" style="enable-background:new 0 0 171.2 46.6;" xml:space="preserve">  <style type="text/css">	.st0{fill:#FFFFFF;}</style>  <g id="XMLID_62_">	<g id="XMLID_104_">		<path id="XMLID_105_" class="st0" d="M49.5,31.7h-2.6c-0.3,0-0.4-0.1-0.3-0.5l4.2-15.8c0.1-0.4,0.4-0.5,0.8-0.5h3.5   c0.4,0,0.7,0.1,0.8,0.5l4.5,15.8c0.1,0.4,0,0.5-0.3,0.5h-2.6c-0.3,0-0.4-0.1-0.4-0.1S57,31.3,57,31.2l-0.9-3h-5.2l-0.7,3   c0,0-0.1,0.3-0.1,0.4C50,31.7,49.8,31.7,49.5,31.7z M53.5,17.7l-2,7.7h3.9L53.5,17.7L53.5,17.7z"></path>	</g>	<g id="XMLID_100_">		<path id="XMLID_101_" class="st0" d="M66.8,31.7h-0.9c-1.4,0-2.5-0.4-3.1-1.2s-1-2.5-1-3.9v-4.3c0-1.4,0.4-2.5,1.2-3.3   c0.8-0.8,1.8-1.2,3.3-1.2h6.2c0.4,0,0.7,0.1,0.7,1.2v13.2c0,0.8-0.4,1.8-1.2,2.6c-0.8,0.8-1.8,1.2-3.3,1.2h-5.1   c-0.3,0-0.4,0-0.4-0.1c-0.1-0.1-0.1-0.3-0.1-0.4v-1.7c0-0.4,0.1-0.5,0.5-0.5h4.6c0.5,0,0.9-0.1,1.2-0.4c0.3-0.3,0.4-0.7,0.4-1.2   v-1.4h-0.1c-0.3,0.5-0.5,0.9-1,1C67.8,31.6,67.3,31.7,66.8,31.7z M69.5,26.1v-4.9c0-0.3-0.1-0.3-0.3-0.3h-2.5   c-0.5,0-0.9,0.1-1.2,0.4s-0.4,0.7-0.4,1.2v4.1c0,0.5,0.1,0.9,0.4,1.2c0.3,0.3,0.7,0.4,1.2,0.4h1C68.9,28.1,69.5,27.4,69.5,26.1z"></path>	</g>	<g id="XMLID_98_">		<path id="XMLID_99_" class="st0" d="M77.8,31.7h-2.2c-0.4,0-0.5-0.1-0.5-0.5V18.5c0-0.4,0.1-0.7,0.5-0.7h2.2   c0.4,0,0.5,0.3,0.5,0.7v0.8h0.1c0.3-0.5,0.4-1.5,2.6-1.5H82c0.4,0,0.5,0.1,0.5,0.5v2.1c0,0.4-0.2,0.5-0.5,0.5h-1.8   c-1.2,0-1.8,0.7-1.8,2.1v8.1C78.4,31.5,78.2,31.7,77.8,31.7z"></path>	</g>	<g id="XMLID_94_">		<path id="XMLID_95_" class="st0" d="M133.9,14.2V12c0-0.4,0.1-0.5,0.5-0.5h2.4c0.4,0,0.5,0.1,0.5,0.5v2.4c0,0.4-0.1,0.5-0.5,0.5   h-2.4C134,14.9,133.9,14.6,133.9,14.2z M133.9,31.2V18.3c0-0.4,0.1-0.5,0.5-0.5h2.4c0.4,0,0.5,0.1,0.5,0.5v12.8   c0,0.3-0.1,0.5-0.5,0.5h-2.4C134,31.7,133.9,31.4,133.9,31.2z"></path>	</g>	<g id="XMLID_90_">		<path id="XMLID_91_" class="st0" d="M84.3,14.2V12c0-0.4,0.1-0.5,0.5-0.5h2.4c0.4,0,0.5,0.1,0.5,0.5v2.4c0,0.4-0.1,0.5-0.5,0.5   h-2.4C84.4,14.9,84.3,14.6,84.3,14.2z M84.3,31.2V18.3c0-0.4,0.1-0.5,0.5-0.5h2.4c0.4,0,0.5,0.1,0.5,0.5v12.8   c0,0.3-0.1,0.5-0.5,0.5h-2.4C84.4,31.7,84.3,31.4,84.3,31.2z"></path>	</g>	<g id="XMLID_88_">		<path id="XMLID_89_" class="st0" d="M98.9,28.9v2.2c0,0.3-0.2,0.5-0.5,0.5h-4.1c-1.4,0-2.5-0.4-3.3-1.2c-0.8-0.8-1.2-1.9-1.2-3.3   v-5c0-1.5,0.4-2.5,1.2-3.3c0.8-0.8,2-1.1,3.3-1.1h4.1c0.4,0,0.5,0.1,0.5,0.5v2.1c0,0.3-0.1,0.5-0.5,0.5h-3.4   c-0.5,0-0.9,0.1-1.2,0.4s-0.4,0.7-0.4,1.2v4c0,0.5,0.1,0.9,0.4,1.2s0.7,0.4,1.2,0.4h3.4C98.9,28.1,98.9,28.7,98.9,28.9z"></path>	</g>	<g id="XMLID_84_">		<path id="XMLID_85_" class="st0" d="M108.5,31.7h-3c-1.4,0-2.5-0.4-3.3-1.1c-0.8-0.8-1.2-1.8-1.2-3.2v-8.2c0-1.4,0.4-2.4,1.2-3.2   c0.8-0.8,1.8-1.1,3.3-1.1h3c1.4,0,2.5,0.4,3.3,1.1c0.8,0.8,1.2,1.8,1.2,3.2v8.2c0,1.4-0.4,2.4-1.2,3.2   C111,31.3,110,31.7,108.5,31.7z M106,28.1h2c0.5,0,1-0.1,1.2-0.4c0.3-0.3,0.4-0.6,0.4-1.1v-7.3c0-0.5-0.1-1-0.4-1.1   c-0.3-0.3-0.7-0.4-1.2-0.4h-2c-0.5,0-0.9,0.1-1.2,0.4c-0.3,0.3-0.4,0.6-0.4,1.1v7.3c0,0.5,0.1,0.9,0.4,1.1   C105.1,28,105.5,28.1,106,28.1z"></path>	</g>	<g id="XMLID_80_">		<path id="XMLID_81_" class="st0" d="M163.1,31.7h-5.9c-1.4,0-2.5-0.4-3.3-1.2c-0.8-0.8-1.2-1.8-1.2-3.3v-5c0-1.4,0.4-2.5,1.2-3.3   c0.8-0.8,1.8-1.2,3.3-1.2h2.1c1.4,0,2.5,0.4,3.3,1.2c0.8,0.8,1.2,1.8,1.2,3.3v2.6c0,0.4-0.1,0.5-0.5,0.5h-6.8   c-0.3,0-0.3,0.9-0.3,1v0.1c0,0.8,0,1.6,1.6,1.6h5.4c0.4,0,0.5,0.3,0.5,0.7v2.4c0,0.3,0,0.4-0.1,0.4   C163.4,31.6,163.4,31.7,163.1,31.7z M156.4,23.1h3.7c0.3,0,0.3-0.1,0.3-0.3v-0.4c0-0.5-0.1-0.9-0.4-1.2c-0.3-0.3-0.7-0.4-1.2-0.4   h-1.2c-0.5,0-0.9,0.1-1.2,0.4S156,22,156,22.5v0.4C156.1,23,156.3,23.1,156.4,23.1z"></path>	</g>	<g id="XMLID_78_">		<path id="XMLID_79_" class="st0" d="M117.9,31.7h-2.2c-0.4,0-0.5-0.1-0.5-0.5V18.3c0-0.4,0.1-0.5,0.5-0.5h2.2   c0.4,0,0.5,0.1,0.5,0.5v0.9h0.1c0.4-0.9,1.3-1.4,2.6-1.4h0.9c2.8,0,4.2,1.6,4.2,4.5v8.9c0,0.4-0.3,0.5-0.7,0.5h-2.2   c-0.4,0-0.5-0.1-0.5-0.5v-8.7c0-0.5-0.1-1-0.4-1.2c-0.3-0.3-0.7-0.4-1.2-0.4h-0.9c-1.2,0-1.8,0.7-1.8,2.1v8.1   C118.4,31.4,118.3,31.7,117.9,31.7z"></path>	</g>	<g id="XMLID_76_">		<path id="XMLID_77_" class="st0" d="M142.2,31.7H140c-0.4,0-0.5-0.1-0.5-0.5V18.3c0-0.4,0.1-0.5,0.5-0.5h2.2   c0.4,0,0.5,0.1,0.5,0.5v0.9h0.1c0.4-0.9,1.3-1.4,2.6-1.4h0.9c2.8,0,4.2,1.6,4.2,4.5v8.9c0,0.4-0.3,0.5-0.7,0.5h-2.2   c-0.4,0-0.5-0.1-0.5-0.5v-8.7c0-0.5-0.1-1-0.4-1.2c-0.3-0.3-0.7-0.4-1.2-0.4h-0.9c-1.2,0-1.8,0.7-1.8,2.1v8.1   C142.7,31.4,142.6,31.7,142.2,31.7z"></path>	</g>	<g id="XMLID_74_">		<path id="XMLID_75_" class="st0" d="M131.2,31.7H129c-0.4,0-0.5-0.1-0.5-0.5V12c0-0.4,0.1-0.5,0.5-0.5h2.2c0.4,0,0.5,0.1,0.5,0.5   v19.2C131.8,31.4,131.6,31.7,131.2,31.7z"></path>	</g>	<g id="XMLID_2_">		<path id="XMLID_6_" class="st0" d="M15.9,24.1c0-0.1,0.1-0.3,0.1-0.4H7.5v3h3.9l2.7,4.8l-2,3.6l2.8,1.7l3.9-6.8   C16.7,28.5,15.6,26.4,15.9,24.1z"></path>		<path id="XMLID_14_" class="st0" d="M39.5,19.7h-4.4L32.4,15l2-3.5l-2.8-1.7L26,19.4c0.6-0.2,1.2-0.5,1.7-0.8c0,0,0.1-0.1,0.2-0.1   c0.4-0.3,0.8-0.6,1.2-0.6c0.1,0,0.4,0,0.5,0.1c0.6,0.3,0.7,0.9,0.8,1.4c0,0,0.2,2.4,0.2,3.4h8.9V19.7z"></path>		<path id="XMLID_15_" class="st0" d="M17.4,19.8c0.1-0.2,0.2-0.4,0.3-0.5c0.4-0.9,0.9-1.9,0.9-2.8c0-0.1,0-0.2,0.1-0.3l-3.7-6.4   L12,11.4l2,3.6l-2.7,4.8H7.5v3h8.7c0.3-0.9,0.7-1.8,1-2.7L17.4,19.8z"></path>		<path id="XMLID_16_" class="st0" d="M27.6,29.9l4,7l2.8-1.6l-2-3.6l2.7-4.8h4.4v-3h-8.9C30.4,26.5,29.3,28.6,27.6,29.9z"></path>		<path id="XMLID_17_" class="st0" d="M19.6,30.5l-3.9,6.8l2.8,1.8l2-3.3h5.4l2,3.3l2.8-1.7l-4-7c-1.2,0.6-2.5,0.9-3.8,0.9   C21.7,31.2,20.6,31,19.6,30.5z"></path>		<path id="XMLID_18_" class="st0" d="M19.6,15.4c1.1,0.1,2.1,1,2.8,1.7c0.1,0.1,0.2,0.2,0.3,0.3c0.4,0.3,1.3,1.2,1.8,1.8   c0.1,0.1,0.2,0.2,0.2,0.3c0,0,0,0,0,0.1l6-10.3l0.4,0.2l-3.2-2.1l-2,3.3h-5.4l-2-3.3l-2.8,1.8l3.6,6.2   C19.3,15.4,19.4,15.4,19.6,15.4C19.6,15.4,19.6,15.4,19.6,15.4z"></path>		<path id="XMLID_23_" class="st0" d="M29.2,18.8c-0.1-0.2-0.3,0.1-0.5,0.3c-0.1,0-0.1,0.1-0.2,0.1c-0.1,0-0.1,0.1-0.2,0.1   c-0.6,0.4-1.3,0.7-2,1c-0.8,0.3-1.5,0.6-2.3,0.9l-0.7,0.3c-0.1,0-0.1,0.1-0.2,0.1L22.4,22c-0.2,0.1-0.3,0.2-0.5,0.3l-0.3,0.2   c-0.1,0-0.1,0.1-0.2,0.1c-0.2,0.1-0.3,0.3-0.4,0.4c-0.2,0.2-0.4,0.5-0.6,0.7l-0.2,0.3c-0.2,0.4-0.4,0.9-0.5,1.4   c-0.1,0.3-0.1,0.6-0.1,1c0,0.9,0.1,1.7,0.4,2.5l0.2,0.5c0,0.1,0.2,0.2,0.2-0.1c0-0.2,0-0.7,0-0.9c0-0.2,0-0.5,0-0.7l0.1-0.5   c0.2-0.9,0.5-1.8,1.2-2.5c0.1-0.1,0.3-0.3,0.4-0.4l0.2-0.1c0.1-0.1,0.3-0.2,0.4-0.3c0.5-0.3,1-0.5,1.5-0.7c0.1,0,0.2-0.1,0.3-0.1   L25,23c0.4-0.1,1.2-0.2,1.6-0.3c0,0-0.4,0.1-0.5,0.2c-0.1,0-0.2,0-0.2,0.1c-0.3,0.1-0.5,0.2-0.8,0.3l-0.3,0.2   c-0.3,0.2-0.7,0.4-1,0.6l-0.2,0.1c-0.1,0.1-0.3,0.2-0.4,0.4c-0.3,0.4-0.7,0.8-0.9,1.2c-0.3,0.6-0.5,1.1-0.6,1.7   c-0.1,0.7-0.1,1.6,0.2,2.2c0,0.1,0.1,0.2,0.1,0.2c0.1,0.3,0.4,0.2,0.7,0.2c0.8,0,1.6-0.1,2.3-0.3c0.4-0.1,0.8-0.2,1.1-0.4l0.3-0.1   c0.3-0.2,0.7-0.4,0.9-0.6c0,0,0.1-0.1,0.1-0.1c0.2-0.2,0.6-0.6,0.8-0.8c0.1-0.2,0.2-0.3,0.4-0.5c0.3-0.4,0.4-0.9,0.6-1.4   c0.1-0.2,0.1-0.3,0.1-0.5c0.1-0.5,0.2-1,0.2-1.6c0-0.3,0-0.5,0-0.8l0-0.3c0-1.1-0.1-2.1-0.3-3.1C29.3,19.6,29.2,18.9,29.2,18.8z"></path>		<path id="XMLID_24_" class="st0" d="M19.7,29.5C19.8,29.5,19.7,29.5,19.7,29.5c0.1-0.1,0-0.4-0.1-0.5l-0.2-0.5   c0-0.2-0.1-0.3-0.2-0.4c-0.6-1-0.8-1.9-0.7-3c0-0.1,0-0.3,0.1-0.4l0.2-0.7c0-0.1,0.1-0.2,0.1-0.3c0-0.1,0-0.1,0.1-0.2   c0-0.1,0-0.1,0.1-0.2c0.1-0.2,0.2-0.4,0.3-0.6c0.2-0.4,0.4-0.7,0.6-1l0.2-0.2c0.1-0.1,0.5-0.7,0.6-0.7c0,0.1-0.2,0.4-0.3,0.5   l-0.3,0.6c0,0,0,0.1,0,0.1c0,0.1-0.1,0.1-0.1,0.2c-0.1,0.2-0.2,0.4-0.2,0.6c-0.2,0.6-0.3,1.1-0.3,1.8c0,0,0,0,0,0   c0,0,0.1-0.3,0.2-0.4c0.1-0.3,0.3-0.6,0.5-0.8c0,0,0,0,0.1-0.1c0.1-0.1,0.2-0.2,0.3-0.4c0,0,0,0,0.1-0.1c0,0,0,0,0.1-0.1   c0,0,0.1-0.1,0.1-0.1c0.1-0.1,0.3-0.3,0.4-0.4l0.5-0.3c0.1,0,0.1-0.1,0.2-0.1c0,0,0.1,0,0.1-0.1l0.7-0.4c0.4-0.2,0.8-0.4,1.2-0.6   c0.1,0,0.1-0.1,0.2-0.1c0.2-0.1,0.2-0.2,0.1-0.3c-0.1-0.2-0.4-0.6-0.6-0.8l-0.1-0.1c0,0,0,0-0.1-0.1l-0.3-0.3c0,0,0,0-0.1-0.1   l-1-0.9c-0.1-0.1-0.2-0.2-0.3-0.2l-1-0.9c-0.1,0-0.1-0.1-0.2-0.1c-0.9-0.7-1.1-0.6-1.2-0.2c0,0.6-0.3,1.5-0.6,2.1c0,0,0,0,0,0.1   c-0.2,0.5-0.4,0.9-0.6,1.4l-0.2,0.4c0,0,0,0.1-0.1,0.1c-0.4,0.9-0.8,1.8-1,2.7c-0.1,0.5-0.2,1-0.2,1.5c0,0.6,0.1,1.1,0.3,1.6   l0.4,0.8c0.1,0.2,0.2,0.3,0.3,0.4c0.1,0.2,0.2,0.3,0.3,0.4l0.1,0.1c0,0,0.1,0.1,0.1,0.1l0.4,0.4C19,29,19.3,29.3,19.7,29.5   C19.7,29.5,19.7,29.5,19.7,29.5z"></path>	</g></g></svg>